<?xml version="1.0" encoding="UTF-8"?>
<!-- Generator: Adobe Illustrator 19.1.0, SVG Export Plug-In . SVG Version: 6.00 Build 0)  -->
<svg version="1.1" id="Layer_1" xmlns="http://www.w3.org/2000/svg" xmlns:xlink="http://www.w3.org/1999/xlink" x="0px" y="0px" viewBox="0 0 60 56" style="enable-background:new 0 0 60 56;" xml:space="preserve">
<style type="text/css">
	.st0{fill:#9DCC3C;}
	.st1{fill:#4995EC;}
	.st2{clip-path:url(#SVGID_2_);fill:#444B54;}
</style>
<rect x="15.7" y="0.4" class="st0" width="28.4" height="4.4"/>
<rect x="10.2" y="42.2" class="st1" width="37.5" height="5"/>
<g>
	<defs>
		<rect id="SVGID_1_" width="60" height="56"/>
	</defs>
	<clipPath id="SVGID_2_">
		<use xlink:href="#SVGID_1_" style="overflow:visible;"/>
	</clipPath>
	<path class="st2" d="M57,10H42V6h2c0.6,0,1-0.4,1-1V1c0-0.6-0.4-1-1-1H16c-0.6,0-1,0.4-1,1v4c0,0.6,0.4,1,1,1h2v4H3   c-1.7,0-3,1.3-3,3v16c0,0.6,0.4,1,1,1h3v5h2v-5h16v3c0,0.6,0.4,1,1,1h14c0.6,0,1-0.4,1-1v-3h16v5h2v-5h3c0.6,0,1-0.4,1-1V13   C60,11.3,58.7,10,57,10 M17,2h26v2H17V2z M20,6h20v4H20V6z M36,32H24v-6h12V32z M58,28h-3H38v-3c0-0.6-0.4-1-1-1H23   c-0.6,0-1,0.4-1,1v3H5H2V13c0-0.6,0.4-1,1-1h16h22h16c0.6,0,1,0.4,1,1V28z"/>
	<path class="st2" d="M54,54H6v-2H4v3c0,0.6,0.4,1,1,1h50c0.6,0,1-0.4,1-1v-3h-2V54z"/>
	<path class="st2" d="M59,41h-3v-3c0-0.6-0.4-1-1-1H25v2h29v2h-6H10c-0.2,0-0.5,0.1-0.6,0.2l-8.7,2.9C0.3,44.2,0,44.6,0,45   s0.3,0.8,0.7,0.9l8.7,2.9c0.1,0.1,0.3,0.1,0.4,0.2H10h38h11c0.6,0,1-0.4,1-1v-6C60,41.4,59.6,41,59,41 M9,43.4v3.2L4.2,45L9,43.4z    M11,43h36v4H11V43z M49,43h2v4h-2V43z M58,47h-5v-4h5V47z"/>
	<rect x="26" y="28" class="st2" width="8" height="2"/>
</g>
</svg>