<?xml version="1.0" encoding="UTF-8"?>
<!-- Generator: Adobe Illustrator 19.1.0, SVG Export Plug-In . SVG Version: 6.00 Build 0)  -->
<svg version="1.1" id="Layer_1" xmlns="http://www.w3.org/2000/svg" xmlns:xlink="http://www.w3.org/1999/xlink" x="0px" y="0px" viewBox="0 0 60 60" style="enable-background:new 0 0 60 60;" xml:space="preserve">
<style type="text/css">
	.st0{fill:#9DCC3C;}
	.st1{fill:#4995EC;}
	.st2{clip-path:url(#SVGID_2_);fill:#444B54;}
</style>
<rect x="16.8" y="47.8" class="st0" width="7" height="10.3"/>
<rect x="36.2" y="47.8" class="st1" width="7" height="10.3"/>
<g>
	<defs>
		<rect id="SVGID_1_" width="60" height="60"/>
	</defs>
	<clipPath id="SVGID_2_">
		<use xlink:href="#SVGID_1_" style="overflow:visible;"/>
	</clipPath>
	<path class="st2" d="M44.5,23.2v-2.1c1.1-0.4,1.9-1.5,1.9-2.7c0-1.2-0.7-2.2-1.7-2.6l1.8-7.3l-6.9-8l-6.9,8l1.8,7.3   c-1,0.5-1.7,1.5-1.7,2.6c0,1.3,0.8,2.3,1.9,2.7v2.1h-9.7V8.5L20.3,0l-4.8,8.5v14.8H0v13.5h15.5v18.4c0,2.7,2.2,4.8,4.8,4.8   c2.7,0,4.8-2.2,4.8-4.8V36.8h9.7v18.4c0,2.7,2.2,4.8,4.8,4.8c2.7,0,4.8-2.2,4.8-4.8v-2.9h1c1.6,0,2.9-1.3,2.9-2.9v-5.7l-0.5-0.3   c-0.3-0.2-0.5-0.5-0.5-0.8c0-0.3,0.2-0.7,0.5-0.8l0.5-0.3v-2.8h-1.9v1.7c-0.6,0.5-1,1.3-1,2.2c0,0.8,0.4,1.6,1,2.2v4.6   c0,0.5-0.4,1-1,1h-1V36.8H60V23.2H44.5z M15.5,34.8H1.9v-9.7h1.9v2.9h1.9v-2.9h1.9V29h1.9v-3.9h1.9v2.9h1.9v-2.9h1.9V34.8    M20.3,3.9l2.2,3.9h-4.4L20.3,3.9z M17.4,9.7h1.9v37.7h-1.9V9.7z M23.2,55.2c0,1.6-1.3,2.9-2.9,2.9c-1.6,0-2.9-1.3-2.9-2.9v-1.9   h5.8V55.2z M23.2,51.3h-5.8v-1.9h5.8V51.3z M23.2,47.4h-1.9V9.7h1.9V47.4z M39.7,8.7c0.5,0,1,0.4,1,1s-0.4,1-1,1s-1-0.4-1-1   S39.1,8.7,39.7,8.7 M38.7,4.6V7c-1.1,0.4-1.9,1.5-1.9,2.7c0,1.6,1.3,2.9,2.9,2.9c1.6,0,2.9-1.3,2.9-2.9c0-1.3-0.8-2.3-1.9-2.7V4.6   L44.4,9l-1.6,6.5h-6.2L34.9,9L38.7,4.6z M34.8,34.8h-9.7v-9.7h1.9v2.9H29v-2.9H31V29h1.9v-3.9h1.9V34.8z M39.7,58.1   c-1.6,0-2.9-1.3-2.9-2.9v-2.9h5.8v2.9C42.6,56.8,41.3,58.1,39.7,58.1 M42.6,24.2v3.9v18.4h-5.8V21.3h5.8V24.2z M42.6,50.3h-5.8   v-1.9h5.8V50.3z M43.5,19.4h-7.7c-0.5,0-1-0.4-1-1c0-0.5,0.4-1,1-1h7.7c0.5,0,1,0.4,1,1C44.5,18.9,44.1,19.4,43.5,19.4 M58,34.8   L58,34.8H44.5v-6.8v-2.9h1.9V29h1.9v-3.9h1.9v2.9h1.9v-2.9h1.9V29h1.9v-3.9H58V34.8z"/>
</g>
</svg>