<?xml version="1.0" encoding="UTF-8"?>
<!-- Generator: Adobe Illustrator 19.1.0, SVG Export Plug-In . SVG Version: 6.00 Build 0)  -->
<svg version="1.1" id="Layer_1" xmlns="http://www.w3.org/2000/svg" xmlns:xlink="http://www.w3.org/1999/xlink" x="0px" y="0px" viewBox="0 0 60 60" style="enable-background:new 0 0 60 60;" xml:space="preserve">
<style type="text/css">
	.st0{fill:#4995EC;}
	.st1{fill:#9DCC3C;}
	.st2{clip-path:url(#SVGID_2_);fill:#444B54;}
</style>
<polygon class="st0" points="20.2,37.5 39.3,53.8 58.7,37.7 39.8,49 "/>
<polygon class="st1" points="31.8,1.5 32,10 41,10 "/>
<g>
	<defs>
		<rect id="SVGID_1_" width="60" height="60"/>
	</defs>
	<clipPath id="SVGID_2_">
		<use xlink:href="#SVGID_1_" style="overflow:visible;"/>
	</clipPath>
	<path class="st2" d="M2,2h29v8c0,0.6,0.4,1,1,1h8v3h2v-4c0-0.1,0-0.2-0.1-0.3V9.6c-0.1-0.1-0.1-0.2-0.2-0.3l-9-9   c-0.1-0.1-0.2-0.1-0.3-0.2h-0.1C32.2,0.1,32.1,0,32,0H1C0.4,0,0,0.4,0,1v58c0,0.6,0.4,1,1,1h15v-2H2V2z M38.6,9H33V3.4L38.6,9z"/>
	<path class="st2" d="M59,16H31c-0.6,0-1,0.4-1,1v16c0,0.6,0.4,1,1,1h28c0.6,0,1-0.4,1-1V17C60,16.4,59.6,16,59,16 M58,32H32V18h26   V32z"/>
	<path class="st2" d="M59,36H19c-0.6,0-1,0.4-1,1v22c0,0.6,0.4,1,1,1h40c0.6,0,1-0.4,1-1V37C60,36.4,59.6,36,59,36 M55.5,38L40,47.8   L22.7,38H55.5z M20,58V38.8l19.5,11.1C39.7,50,39.8,50,40,50s0.4-0.1,0.6-0.2l17.4-11V58H20z"/>
	<rect x="50" y="22" class="st2" width="5" height="2"/>
	<rect x="44" y="26" class="st2" width="11" height="2"/>
	<path class="st2" d="M38,28c1.7,0,3-1.3,3-3c0-1.7-1.3-3-3-3c-1.7,0-3,1.3-3,3C35,26.7,36.3,28,38,28 M38,24c0.6,0,1,0.4,1,1   c0,0.6-0.4,1-1,1c-0.6,0-1-0.4-1-1C37,24.4,37.4,24,38,24"/>
	<rect x="6" y="6" class="st2" width="6" height="2"/>
	<rect x="6" y="11" class="st2" width="19" height="2"/>
	<rect x="6" y="18" class="st2" width="12" height="2"/>
	<rect x="6" y="24" class="st2" width="19" height="2"/>
	<rect x="6" y="30" class="st2" width="19" height="2"/>
	<rect x="6" y="36" class="st2" width="9" height="2"/>
	<rect x="6" y="42" class="st2" width="9" height="2"/>
	<rect x="6" y="48" class="st2" width="9" height="2"/>
</g>
</svg>