<?xml version="1.0" encoding="UTF-8"?>
<!-- Generator: Adobe Illustrator 19.1.0, SVG Export Plug-In . SVG Version: 6.00 Build 0)  -->
<svg version="1.1" id="Layer_1" xmlns="http://www.w3.org/2000/svg" xmlns:xlink="http://www.w3.org/1999/xlink" x="0px" y="0px" viewBox="0 0 64.2 60" style="enable-background:new 0 0 64.2 60;" xml:space="preserve">
<style type="text/css">
	.st0{fill:#4995EC;}
	.st1{fill:#9DCC3C;}
	.st2{clip-path:url(#SVGID_2_);fill:#444B54;}
</style>
<polygon class="st0" points="19.6,14.4 34,8 34.1,23 16.6,29.6 17.6,15.2 "/>
<polygon class="st1" points="46.1,15 30.5,20.7 30,34.9 46.3,28.5 "/>
<g>
	<defs>
		<rect id="SVGID_1_" width="64.2" height="60"/>
	</defs>
	<clipPath id="SVGID_2_">
		<use xlink:href="#SVGID_1_" style="overflow:visible;"/>
	</clipPath>
	<path class="st2" d="M62.1,51.7L62.1,51.7V19.6c0-2.3-1.9-4.1-4.1-4.1h-5.1c0-0.1,0-0.2-0.1-0.3L52,15.5h-4.3v-1.7L34.2,7.1   l-17.7,6.6v1.8h-4.8l-0.5-0.1c0,0,0,0.1,0,0.1h-5c-2.3,0-4.1,1.9-4.1,4.1v32.1H0v4.1C0,58.1,1.9,60,4.1,60h55.9   c2.3,0,4.1-1.9,4.1-4.1v-4.1H62.1z M35.2,9.9l8.8,4.4l-8.8,3.3V9.9z M35.2,19.8l10.4-3.9v11.3l-10.4-5.2V19.8z M44,28.8l-12.9,4.9   V25l3-1.1L44,28.8z M31.1,22.8v-1.4l2.1-0.8V22L31.1,22.8z M33.1,9.7v8.7l-3,1.1l-9.9-4.9L33.1,9.7z M18.6,16.1L29,21.3v2.3   l-10.4,3.9V16.1 M29,25.8v7.7l-8.8-4.4L29,25.8z M30,36.3l17.7-6.6v-8h4.1c0,1-0.1,2-0.2,2.9l2,0.3c0.2-1.1,0.2-2.1,0.2-3.2h2.1   v25.9H8.3V21.7h8.3v7.9L30,36.3z M4.1,19.6c0-1.1,0.9-2.1,2.1-2.1h4.5c-0.1,0.3-0.1,0.6-0.2,0.9l2,0.3c0.1-0.4,0.1-0.8,0.2-1.2h3.7   v2.1H6.2v30H58v-30H47.6v-2.1h3.7c0.1,0.4,0.2,0.8,0.2,1.1l2-0.3c0-0.3-0.1-0.5-0.2-0.8H58c1.1,0,2.1,0.9,2.1,2.1v32.1H35.2v2.1H29   v-2.1H4.1V19.6z M62.1,55.9L62.1,55.9c0,1.1-0.9,2.1-2.1,2.1H4.1c-1.1,0-2.1-0.9-2.1-2.1v-2.1h24.9c0,1.1,0.9,2.1,2.1,2.1h6.2   c1.1,0,2.1-0.9,2.1-2.1h24.9V55.9z"/>
	<path class="st2" d="M19.8,6.3l-1.3-1.6c-0.8,0.7-1.6,1.4-2.4,2.2l1.5,1.4C18.3,7.6,19,7,19.8,6.3"/>
	<path class="st2" d="M24.9,3.4l-0.8-1.9c-1,0.4-2,0.9-2.9,1.4l1,1.8C23.1,4.2,23.9,3.8,24.9,3.4"/>
	<path class="st2" d="M15.8,10.6l-1.7-1.2c-0.6,0.9-1.2,1.8-1.6,2.8l1.9,0.9C14.8,12.3,15.3,11.5,15.8,10.6"/>
	<path class="st2" d="M51.7,12.2c-0.5-1-1-1.9-1.6-2.8l-1.7,1.2c0.6,0.8,1.1,1.7,1.5,2.5L51.7,12.2z"/>
	<path class="st2" d="M12.4,21.7l-2.1,0c0,1.1,0.1,2.2,0.2,3.2l2-0.3C12.5,23.7,12.4,22.7,12.4,21.7"/>
	<path class="st2" d="M46.5,8.3L48,6.8c-0.7-0.8-1.5-1.5-2.4-2.2l-1.3,1.6C45.1,6.9,45.8,7.5,46.5,8.3"/>
	<path class="st2" d="M42.9,2.8C42,2.3,41,1.8,40,1.4l-0.8,1.9c0.9,0.4,1.8,0.8,2.7,1.3L42.9,2.8z"/>
	<path class="st2" d="M36.9,0.5c-1.1-0.2-2.1-0.4-3.2-0.5l-0.1,2.1c1,0.1,2,0.2,2.9,0.4L36.9,0.5z"/>
	<path class="st2" d="M30.6,2.1L30.4,0c-1.1,0.1-2.2,0.2-3.2,0.5l0.5,2C28.6,2.3,29.6,2.2,30.6,2.1"/>
	<path class="st2" d="M45.7,38.7l-1.3-1.6c-0.8,0.6-1.6,1.2-2.4,1.7l1,1.8C43.9,40,44.8,39.4,45.7,38.7"/>
	<path class="st2" d="M40.1,41.9L39.3,40c-0.9,0.4-1.9,0.6-2.8,0.9l0.5,2C38,42.6,39.1,42.3,40.1,41.9"/>
	<path class="st2" d="M50.1,33.9l-1.7-1.2c-0.5,0.8-1.2,1.6-1.8,2.3l1.5,1.4C48.8,35.7,49.5,34.8,50.1,33.9"/>
	<path class="st2" d="M52.9,28.1l-2-0.6c-0.3,0.9-0.6,1.9-1.1,2.7l1.9,0.9C52.2,30.1,52.6,29.1,52.9,28.1"/>
	<path class="st2" d="M27.7,40.9c-1-0.2-1.9-0.5-2.8-0.9l-0.8,1.9c1,0.4,2.1,0.7,3.1,1L27.7,40.9z"/>
	<path class="st2" d="M33.7,43.4l-0.2-2.1c-1,0.1-2,0.1-2.9,0l-0.1,2.1c0.5,0,1.1,0.1,1.6,0.1C32.7,43.4,33.2,43.4,33.7,43.4"/>
	<path class="st2" d="M22.3,38.7c-0.8-0.5-1.7-1-2.4-1.7l-1.3,1.6c0.8,0.7,1.8,1.3,2.7,1.8L22.3,38.7z"/>
	<path class="st2" d="M14.1,34c0.6,0.9,1.3,1.7,2,2.5l1.5-1.4c-0.7-0.7-1.3-1.5-1.8-2.3L14.1,34z"/>
	<path class="st2" d="M13.3,27.5l-2,0.6c0.3,1,0.7,2,1.2,3l1.9-0.9C14,29.4,13.6,28.5,13.3,27.5"/>
</g>
</svg>